<svg width="50" height="50" viewBox="0 -5 50 50" fill="none" xmlns="http://www.w3.org/2000/svg">
<path d="M46.4328 12.2758C46.2307 10.7558 46.2022 8.13796 47.6139 7.25891C47.6391 7.24279 47.6579 7.21952 47.68 7.19952C48.8342 6.83035 49.633 6.31227 49.006 5.61512L31.9799 0.484985L4.41079 4.31796C4.41079 4.31796 1.25378 4.7692 1.5358 9.67401C1.6889 12.3435 2.52617 13.6546 3.25838 14.2998L0.996083 14.9816C0.368173 15.6787 1.16679 16.197 2.32114 16.5655C2.34307 16.5861 2.36158 16.6092 2.38724 16.6254C3.7981 17.5052 3.77094 20.1227 3.56801 21.643C-1.50049 23.0822 0.318931 23.5512 0.318931 23.5512L1.43076 23.8202C0.648703 24.5269 -0.127977 25.8671 0.0175105 28.4087C0.299682 33.3126 2.89279 33.651 2.89279 33.651L20.9339 39.515L48.1647 32.9193C48.1647 32.9193 49.9847 32.4495 44.9149 31.0102C44.711 29.4923 44.6827 26.875 46.0968 25.993C46.1228 25.9773 46.1417 25.9536 46.1628 25.9339C47.3171 25.5647 48.1151 25.0471 47.488 24.35L46.3044 23.9926C47.0937 23.5166 48.2794 22.2725 48.4652 19.0411C48.5934 16.8183 48.0135 15.5165 47.3423 14.7501L49.6818 14.184C49.6819 14.1849 51.5019 13.7151 46.4328 12.2758ZM23.6559 12.213L28.2351 11.2718L43.7102 8.0917L46.0158 7.61748C45.2791 8.96582 45.31 10.8111 45.4319 11.997C45.4586 12.2653 45.4893 12.5104 45.5192 12.6966L42.9956 13.324L23.4634 18.1831L23.6559 12.213ZM3.98552 16.9854L6.29079 17.4596L21.1525 20.5147L22.4508 20.7806L26.3444 21.5809L26.5364 27.5511L6.46149 22.5566L4.48242 22.0648C4.51151 21.8783 4.54225 21.6336 4.57016 21.3645C4.69132 20.1794 4.72281 18.3338 3.98552 16.9854ZM3.08991 9.43795C3.06201 8.13333 3.29449 7.18982 3.76438 6.71023C4.06341 6.40404 4.41631 6.34032 4.65834 6.34032C4.78622 6.34032 4.87829 6.35808 4.88456 6.35808L16.7634 10.2307L22.6899 12.163L22.4954 18.1748L5.86925 13.5136L4.99185 13.2678C4.95961 13.2587 4.91589 13.2524 4.88217 13.2509C4.81368 13.246 3.16989 13.0947 3.08991 9.43795ZM20.9768 36.9104L3.4737 32.0032C3.44132 31.9938 3.39805 31.9876 3.36432 31.9859C3.29464 31.9813 1.65011 31.8301 1.57057 28.1743C1.54222 26.868 1.7759 25.9254 2.24489 25.4454C2.54467 25.1392 2.89772 25.0755 3.1393 25.0755C3.26748 25.0755 3.35925 25.0926 3.36597 25.0926C3.36597 25.0926 3.36671 25.0926 3.36597 25.0926L21.1701 30.8984L20.9768 36.9104ZM43.9124 30.7317C43.94 31.0009 43.9707 31.2455 44.0006 31.432L21.9444 36.9189L22.1372 30.9487L26.8526 29.9792L27.549 30.1477L30.1591 29.2994L42.1907 26.827L44.4972 26.3525C43.7598 27.7007 43.7903 29.5466 43.9124 30.7317ZM45.1273 22.618C45.0872 22.6189 45.0471 22.6242 45.0093 22.6362L43.3458 23.1019L27.5066 27.5432L27.3129 21.5314L32.5096 19.8364L45.0927 15.7327C45.0944 15.732 45.7547 15.5853 46.2393 16.0782C46.7085 16.5578 46.9412 17.5013 46.9138 18.8059C46.8317 22.4614 45.1872 22.6133 45.1273 22.618Z" fill="#3B94C6"/>
</svg>
